<!DOCTYPE svg PUBLIC "-//W3C//DTD SVG 1.1//EN" "http://www.w3.org/Graphics/SVG/1.1/DTD/svg11.dtd">
<!-- Uploaded to: SVG Repo, www.svgrepo.com, Transformed by: SVG Repo Mixer Tools -->
<svg width="64px" height="64px" viewBox="0 0 20 20" xmlns="http://www.w3.org/2000/svg" fill="none" stroke="#d8d6ee" transform="rotate(180)matrix(-1, 0, 0, 1, 0, 0)">
<g id="SVGRepo_bgCarrier" stroke-width="0"/>
<g id="SVGRepo_tracerCarrier" stroke-linecap="round" stroke-linejoin="round"/>
<g id="SVGRepo_iconCarrier"> <path fill="#a9a7c0" fill-rule="evenodd" d="M4 1a2 2 0 00-2 2v14a2 2 0 002 2h12a2 2 0 002-2V7.414A2 2 0 0017.414 6L13 1.586A2 2 0 0011.586 1H4zm0 2h7.586L16 7.414V17H4V3zm2 2a1 1 0 000 2h5a1 1 0 100-2H6zm-1 5a1 1 0 011-1h8a1 1 0 110 2H6a1 1 0 01-1-1zm1 3a1 1 0 100 2h8a1 1 0 100-2H6z"/> </g>
</svg>